<?xml version="1.0" standalone="no"?>
<!DOCTYPE svg PUBLIC "-//W3C//DTD SVG 20010904//EN"
 "http://www.w3.org/TR/2001/REC-SVG-20010904/DTD/svg10.dtd">
<svg version="1.0" xmlns="http://www.w3.org/2000/svg"
 width="500.000000pt" height="500.000000pt" viewBox="0 0 500.000000 500.000000"
 preserveAspectRatio="xMidYMid meet">

<g transform="translate(0.000000,500.000000) scale(0.100000,-0.100000)"
fill="#000000" stroke="none">
<path d="M2326 3979 c-272 -29 -574 -166 -786 -356 -247 -222 -408 -500 -475
-818 -23 -108 -30 -335 -16 -467 74 -676 623 -1228 1291 -1298 54 -5 432 -10
878 -10 l782 0 0 774 c0 819 -4 914 -46 1076 -69 268 -188 474 -389 675 -334
334 -748 476 -1239 424z m-66 -841 c19 -29 59 -91 89 -138 30 -47 74 -116 99
-155 25 -38 60 -92 77 -120 18 -27 87 -135 154 -239 l121 -189 0 446 0 447
170 0 170 0 0 -725 0 -725 -172 0 -173 0 -114 178 c-63 97 -189 294 -280 437
l-166 259 -3 -437 -2 -437 -170 0 -170 0 0 725 0 725 168 0 169 0 33 -52z"/>
</g>
</svg>
